<?xml version="1.0" encoding="UTF-8" standalone="no"?>
<!-- Created with Inkscape (http://www.inkscape.org/) -->

<svg
   xmlns:dc="http://purl.org/dc/elements/1.1/"
   xmlns:cc="http://creativecommons.org/ns#"
   xmlns:rdf="http://www.w3.org/1999/02/22-rdf-syntax-ns#"
   xmlns:svg="http://www.w3.org/2000/svg"
   xmlns="http://www.w3.org/2000/svg"
   xmlns:sodipodi="http://sodipodi.sourceforge.net/DTD/sodipodi-0.dtd"
   xmlns:inkscape="http://www.inkscape.org/namespaces/inkscape"
   width="210mm"
   height="297mm"
   viewBox="0 0 210 297"
   version="1.1"
   id="svg8"
   inkscape:version="0.92.4 (5da689c313, 2019-01-14)"
   sodipodi:docname="nighttrain-logo.svg"
   inkscape:export-filename="/home/srivvishnu/Desktop/imp/nighttrain-logo.png"
   inkscape:export-xdpi="300"
   inkscape:export-ydpi="300">
  <defs
     id="defs2">
    <marker
       style="overflow:visible"
       id="DistanceStart"
       refX="0.0"
       refY="0.0"
       orient="auto"
       inkscape:stockid="DistanceStart"
       inkscape:isstock="true">
      <g
         id="g2300"
         style="stroke:#000000;stroke-opacity:1;fill:#000000;fill-opacity:1">
        <path
           style="fill:#000000;stroke:#000000;stroke-width:1.15;stroke-linecap:square;stroke-opacity:1;fill-opacity:1"
           d="M 0,0 L 2,0"
           id="path2306" />
        <path
           style="fill:#000000;fill-rule:evenodd;stroke:#000000;stroke-opacity:1;fill-opacity:1"
           d="M 0,0 L 13,4 L 9,0 13,-4 L 0,0 z "
           id="path2302" />
        <path
           style="fill:#000000;stroke:#000000;stroke-width:1;stroke-linecap:square;stroke-opacity:1;fill-opacity:1"
           d="M 0,-4 L 0,40"
           id="path2304" />
      </g>
    </marker>
    <marker
       style="overflow:visible"
       id="DistanceEnd"
       refX="0.0"
       refY="0.0"
       orient="auto"
       inkscape:stockid="DistanceEnd"
       inkscape:isstock="true">
      <g
         id="g2301"
         style="stroke:#000000;stroke-opacity:1;fill:#000000;fill-opacity:1">
        <path
           style="fill:#000000;stroke:#000000;stroke-width:1.15;stroke-linecap:square;stroke-opacity:1;fill-opacity:1"
           d="M 0,0 L -2,0"
           id="path2316" />
        <path
           style="fill:#000000;fill-rule:evenodd;stroke:#000000;stroke-opacity:1;fill-opacity:1"
           d="M 0,0 L -13,4 L -9,0 -13,-4 L 0,0 z "
           id="path2312" />
        <path
           style="fill:#000000;stroke:#000000;stroke-width:1;stroke-linecap:square;stroke-opacity:1;fill-opacity:1"
           d="M 0,-4 L 0,40"
           id="path2314" />
      </g>
    </marker>
    <marker
       inkscape:stockid="EmptyDiamondSstart"
       orient="auto"
       refY="0.0"
       refX="0.0"
       id="EmptyDiamondSstart"
       style="overflow:visible"
       inkscape:isstock="true">
      <path
         id="path4740"
         d="M 0,-7.0710768 L -7.0710894,0 L 0,7.0710589 L 7.0710462,0 L 0,-7.0710768 z "
         style="fill-rule:evenodd;fill:#ffffff;stroke:#000000;stroke-width:1pt;stroke-opacity:1"
         transform="scale(0.2) translate(6,0)" />
    </marker>
    <marker
       inkscape:stockid="DotL"
       orient="auto"
       refY="0.0"
       refX="0.0"
       id="DotL"
       style="overflow:visible"
       inkscape:isstock="true">
      <path
         id="path4680"
         d="M -2.5,-1.0 C -2.5,1.7600000 -4.7400000,4.0 -7.5,4.0 C -10.260000,4.0 -12.5,1.7600000 -12.5,-1.0 C -12.5,-3.7600000 -10.260000,-6.0 -7.5,-6.0 C -4.7400000,-6.0 -2.5,-3.7600000 -2.5,-1.0 z "
         style="fill-rule:evenodd;stroke:#000000;stroke-width:1pt;stroke-opacity:1;fill:#000000;fill-opacity:1"
         transform="scale(0.8) translate(7.4, 1)" />
    </marker>
    <marker
       inkscape:stockid="Arrow1Mend"
       orient="auto"
       refY="0.0"
       refX="0.0"
       id="marker4915"
       style="overflow:visible;"
       inkscape:isstock="true">
      <path
         id="path4913"
         d="M 0.0,0.0 L 5.0,-5.0 L -12.5,0.0 L 5.0,5.0 L 0.0,0.0 z "
         style="fill-rule:evenodd;stroke:#000000;stroke-width:1pt;stroke-opacity:1;fill:#000000;fill-opacity:1"
         transform="scale(0.4) rotate(180) translate(10,0)" />
    </marker>
    <marker
       inkscape:stockid="Arrow1Sstart"
       orient="auto"
       refY="0.0"
       refX="0.0"
       id="Arrow1Sstart"
       style="overflow:visible"
       inkscape:isstock="true">
      <path
         id="path4631"
         d="M 0.0,0.0 L 5.0,-5.0 L -12.5,0.0 L 5.0,5.0 L 0.0,0.0 z "
         style="fill-rule:evenodd;stroke:#000000;stroke-width:1pt;stroke-opacity:1;fill:#000000;fill-opacity:1"
         transform="scale(0.2) translate(6,0)" />
    </marker>
    <marker
       inkscape:stockid="Arrow1Send"
       orient="auto"
       refY="0.0"
       refX="0.0"
       id="Arrow1Send"
       style="overflow:visible;"
       inkscape:isstock="true">
      <path
         id="path4634"
         d="M 0.0,0.0 L 5.0,-5.0 L -12.5,0.0 L 5.0,5.0 L 0.0,0.0 z "
         style="fill-rule:evenodd;stroke:#000000;stroke-width:1pt;stroke-opacity:1;fill:#000000;fill-opacity:1"
         transform="scale(0.2) rotate(180) translate(6,0)" />
    </marker>
    <marker
       inkscape:stockid="Arrow1Mend"
       orient="auto"
       refY="0.0"
       refX="0.0"
       id="Arrow1Mend"
       style="overflow:visible;"
       inkscape:isstock="true">
      <path
         id="path4628"
         d="M 0.0,0.0 L 5.0,-5.0 L -12.5,0.0 L 5.0,5.0 L 0.0,0.0 z "
         style="fill-rule:evenodd;stroke:#000000;stroke-width:1pt;stroke-opacity:1;fill:#000000;fill-opacity:1"
         transform="scale(0.4) rotate(180) translate(10,0)" />
    </marker>
    <marker
       inkscape:stockid="Arrow1Lstart"
       orient="auto"
       refY="0.0"
       refX="0.0"
       id="Arrow1Lstart"
       style="overflow:visible"
       inkscape:isstock="true">
      <path
         id="path4619"
         d="M 0.0,0.0 L 5.0,-5.0 L -12.5,0.0 L 5.0,5.0 L 0.0,0.0 z "
         style="fill-rule:evenodd;stroke:#000000;stroke-width:1pt;stroke-opacity:1;fill:#000000;fill-opacity:1"
         transform="scale(0.8) translate(12.5,0)" />
    </marker>
  </defs>
  <sodipodi:namedview
     id="base"
     pagecolor="#ffffff"
     bordercolor="#666666"
     borderopacity="1.0"
     inkscape:pageopacity="0.0"
     inkscape:pageshadow="2"
     inkscape:zoom="0.61338357"
     inkscape:cx="396.58022"
     inkscape:cy="560.53612"
     inkscape:document-units="mm"
     inkscape:current-layer="layer1"
     showgrid="false"
     inkscape:window-width="1920"
     inkscape:window-height="946"
     inkscape:window-x="0"
     inkscape:window-y="27"
     inkscape:window-maximized="1" />
  <metadata
     id="metadata5">
    <rdf:RDF>
      <cc:Work
         rdf:about="">
        <dc:format>image/svg+xml</dc:format>
        <dc:type
           rdf:resource="http://purl.org/dc/dcmitype/StillImage" />
        <dc:title></dc:title>
      </cc:Work>
    </rdf:RDF>
  </metadata>
  <g
     inkscape:label="Layer 1"
     inkscape:groupmode="layer"
     id="layer1">
    <path
       style="color:#000000;font-style:normal;font-variant:normal;font-weight:normal;font-stretch:normal;font-size:medium;line-height:normal;font-family:sans-serif;font-variant-ligatures:normal;font-variant-position:normal;font-variant-caps:normal;font-variant-numeric:normal;font-variant-alternates:normal;font-feature-settings:normal;text-indent:0;text-align:start;text-decoration:none;text-decoration-line:none;text-decoration-style:solid;text-decoration-color:#000000;letter-spacing:normal;word-spacing:normal;text-transform:none;writing-mode:lr-tb;direction:ltr;text-orientation:mixed;dominant-baseline:auto;baseline-shift:baseline;text-anchor:start;white-space:normal;shape-padding:0;clip-rule:nonzero;display:inline;overflow:visible;visibility:visible;opacity:0.95;isolation:auto;mix-blend-mode:normal;color-interpolation:sRGB;color-interpolation-filters:linearRGB;solid-color:#000000;solid-opacity:1;vector-effect:none;fill:#000000;fill-opacity:1;fill-rule:nonzero;stroke:none;stroke-width:26.6609993;stroke-linecap:butt;stroke-linejoin:miter;stroke-miterlimit:4;stroke-dasharray:213.28799858, 53.32199964, 26.66099982, 53.32199964;stroke-dashoffset:226.61849976;stroke-opacity:1;color-rendering:auto;image-rendering:auto;shape-rendering:auto;text-rendering:auto;enable-background:accumulate"
       d="m 59.814098,162.4563 2.367052,1.58124 0.280614,0.18839 0.289143,0.17288 2.420505,1.44448 0.287551,0.17176 0.29769,0.1574 2.465792,1.30911 0.294963,0.15787 0.303501,0.14239 2.507892,1.17149 0.301899,0.14125 0.309322,0.12737 2.542293,1.03801 0.308845,0.12464 0.311938,0.11009 2.5751,0.9034 0.311938,0.11009 0.316156,0.0939 2.601335,0.77134 0.316156,0.0939 0.31878,0.0767 2.62325,0.6386 0.317655,0.0782 0.320279,0.061 2.642452,0.50635 0.317552,0.0614 0.32337,0.0465 2.652357,0.37709 0.320176,0.0442 0.320549,0.0301 2.660666,0.24672 0.32055,0.0301 0.322038,0.0145 2.663546,0.11724 0.31932,0.015 0.320819,-8.3e-4 2.660948,-0.0112 0.31923,-0.002 0.31959,-0.0159 2.65342,-0.13603 0.31799,-0.0171 0.31677,-0.0323 2.64267,-0.26313 0.31677,-0.0323 0.31442,-0.0459 2.62489,-0.39039 0.31442,-0.0459 0.3116,-0.0622 2.60485,-0.51447 0.31047,-0.0606 0.30924,-0.0758 2.57778,-0.63874 0.30926,-0.0758 0.30641,-0.0922 2.54415,-0.76046 0.30641,-0.0922 0.30136,-0.10532 2.51162,-0.88378 0.30136,-0.10531 0.29581,-0.12119 2.46982,-1.00409 0.29853,-0.12166 0.29186,-0.13592 2.42369,-1.12507 0.29186,-0.13591 0.28791,-0.15065 2.37213,-1.2451 0.28791,-0.15064 0.28012,-0.16333 2.31783,-1.36466 0.28124,-0.16492 0.27299,-0.1803 2.25696,-1.48169 0.27458,-0.17918 0.26631,-0.19456 2.19179,-1.59938 0.26632,-0.19457 0.25851,-0.20724 2.12116,-1.71611 0.25852,-0.20724 0.24753,-0.22215 2.04671,-1.83078 0.25024,-0.22264 0.23702,-0.23436 -20.0612,-17.80529 -1.61614,1.30512 -1.65418,1.20657 -1.69449,1.11122 -1.78996,1.05343 -1.76709,0.92616 -1.83453,0.8523 -1.88428,0.767 -1.9078,0.67155 -1.90452,0.56868 -1.99308,0.49428 -1.95012,0.38594 -2.0226,0.29897 -2.00867,0.20125 -2.04079,0.10448 -2.01548,0.008 -1.988571,-0.0882 -2.032532,-0.18846 -2.024492,-0.28795 -1.99327,-0.38304 -1.970682,-0.47945 -1.963109,-0.58166 -1.952827,-0.68436 -1.954173,-0.79764 -1.878831,-0.88073 -1.865162,-0.98821 -1.862949,-1.11333 -1.791928,-1.19707 -1.728875,-1.28645 -1.675883,-1.38531 -17.733277,19.91121 0.248146,0.22763 0.259881,0.21439 2.171226,1.79446 0.259881,0.21439 0.271606,0.20115 2.283735,1.69935 0.271606,0.20115 z"
       id="path4939"
       inkscape:connector-curvature="0"
       sodipodi:nodetypes="cccccccccccccccccccccccccccccccccccccccccccccccccccccccccccccccccccccccccccccccccccccccccccccccccccccccccccccccccccccccccccc" />
    <path
       style="color:#000000;font-style:normal;font-variant:normal;font-weight:normal;font-stretch:normal;font-size:medium;line-height:normal;font-family:sans-serif;font-variant-ligatures:normal;font-variant-position:normal;font-variant-caps:normal;font-variant-numeric:normal;font-variant-alternates:normal;font-feature-settings:normal;text-indent:0;text-align:start;text-decoration:none;text-decoration-line:none;text-decoration-style:solid;text-decoration-color:#000000;letter-spacing:normal;word-spacing:normal;text-transform:none;writing-mode:lr-tb;direction:ltr;text-orientation:mixed;dominant-baseline:auto;baseline-shift:baseline;text-anchor:start;white-space:normal;shape-padding:0;clip-rule:nonzero;display:inline;overflow:visible;visibility:visible;opacity:0.95;isolation:auto;mix-blend-mode:normal;color-interpolation:sRGB;color-interpolation-filters:linearRGB;solid-color:#000000;solid-opacity:1;vector-effect:none;fill:#000000;fill-opacity:1;fill-rule:nonzero;stroke:none;stroke-width:26.6609993;stroke-linecap:butt;stroke-linejoin:miter;stroke-miterlimit:4;stroke-dasharray:213.28799858, 53.32199964, 26.66099982, 53.32199964;stroke-dashoffset:226.61849976;stroke-opacity:1;color-rendering:auto;image-rendering:auto;shape-rendering:auto;text-rendering:auto;enable-background:accumulate"
       d="m 89.341202,65.295213 1.988073,-0.414275 1.995101,-0.314472 1.984334,-0.21984 2.033731,-0.12638 2.043465,-0.02708 1.989344,0.06847 2.03863,0.168964 1.99697,0.263631 1.99214,0.359986 1.53113,0.357282 6.04891,-25.965767 -1.82582,-0.425514 -0.3184,-0.07512 -0.32087,-0.05783 -2.64622,-0.481803 -0.31925,-0.05672 -0.32382,-0.04325 -2.65595,-0.350853 -0.31949,-0.04264 -0.32194,-0.02534 -2.66298,-0.220405 -0.32083,-0.02694 -0.32217,-0.01126 -2.663458,-0.09255 -0.320561,-0.01015 -0.320796,0.0039 -2.660721,0.03752 -0.318072,0.0034 -0.319425,0.01912 -2.653043,0.163878 -0.317811,0.02024 -0.316436,0.03543 -2.639938,0.289242 -0.315326,0.03382 -0.315061,0.05062 -2.620898,0.416329 -0.313951,0.04902 -0.310968,0.06532 -2.598529,0.538596 -0.310967,0.06532 -0.308483,0.0789 -0.772067,0.200221 6.660319,25.813914 z"
       id="path815" />
    <circle
       r="23.470575"
       cy="106.17288"
       cx="98.884117"
       id="circle817"
       style="opacity:0.95;fill:none;stroke:#000000;stroke-width:24.16900063;stroke-miterlimit:4;stroke-dasharray:none;stroke-opacity:1" />
  </g>
</svg>
