<?xml version="1.0" encoding="UTF-8" standalone="no"?>
<svg
   xmlns:dc="http://purl.org/dc/elements/1.1/"
   xmlns:cc="http://creativecommons.org/ns#"
   xmlns:rdf="http://www.w3.org/1999/02/22-rdf-syntax-ns#"
   xmlns:svg="http://www.w3.org/2000/svg"
   xmlns="http://www.w3.org/2000/svg"
   xmlns:sodipodi="http://sodipodi.sourceforge.net/DTD/sodipodi-0.dtd"
   xmlns:inkscape="http://www.inkscape.org/namespaces/inkscape"
   width="210mm"
   height="297mm"
   viewBox="0 0 210 297"
   version="1.1"
   id="svg8"
   inkscape:version="1.0.2 (e86c870879, 2021-01-15)"
   sodipodi:docname="logo2.svg"
   inkscape:export-filename="/home/srivvishnu/Desktop/imp/nighttrain-logo.png"
   inkscape:export-xdpi="300"
   inkscape:export-ydpi="300">
  <defs
     id="defs2">
    <marker
       style="overflow:visible"
       id="DistanceStart"
       refX="0.0"
       refY="0.0"
       orient="auto"
       inkscape:stockid="DistanceStart"
       inkscape:isstock="true">
      <g
         id="g2300"
         style="stroke:#000000;stroke-opacity:1;fill:#000000;fill-opacity:1">
        <path
           style="fill:#000000;stroke:#000000;stroke-width:1.15;stroke-linecap:square;stroke-opacity:1;fill-opacity:1"
           d="M 0,0 L 2,0"
           id="path2306" />
        <path
           style="fill:#000000;fill-rule:evenodd;stroke:#000000;stroke-opacity:1;fill-opacity:1"
           d="M 0,0 L 13,4 L 9,0 13,-4 L 0,0 z "
           id="path2302" />
        <path
           style="fill:#000000;stroke:#000000;stroke-width:1;stroke-linecap:square;stroke-opacity:1;fill-opacity:1"
           d="M 0,-4 L 0,40"
           id="path2304" />
      </g>
    </marker>
    <marker
       style="overflow:visible"
       id="DistanceEnd"
       refX="0.0"
       refY="0.0"
       orient="auto"
       inkscape:stockid="DistanceEnd"
       inkscape:isstock="true">
      <g
         id="g2301"
         style="stroke:#000000;stroke-opacity:1;fill:#000000;fill-opacity:1">
        <path
           style="fill:#000000;stroke:#000000;stroke-width:1.15;stroke-linecap:square;stroke-opacity:1;fill-opacity:1"
           d="M 0,0 L -2,0"
           id="path2316" />
        <path
           style="fill:#000000;fill-rule:evenodd;stroke:#000000;stroke-opacity:1;fill-opacity:1"
           d="M 0,0 L -13,4 L -9,0 -13,-4 L 0,0 z "
           id="path2312" />
        <path
           style="fill:#000000;stroke:#000000;stroke-width:1;stroke-linecap:square;stroke-opacity:1;fill-opacity:1"
           d="M 0,-4 L 0,40"
           id="path2314" />
      </g>
    </marker>
    <marker
       inkscape:stockid="EmptyDiamondSstart"
       orient="auto"
       refY="0.0"
       refX="0.0"
       id="EmptyDiamondSstart"
       style="overflow:visible"
       inkscape:isstock="true">
      <path
         id="path4740"
         d="M 0,-7.0710768 L -7.0710894,0 L 0,7.0710589 L 7.0710462,0 L 0,-7.0710768 z "
         style="fill-rule:evenodd;fill:#ffffff;stroke:#000000;stroke-width:1pt;stroke-opacity:1"
         transform="scale(0.2) translate(6,0)" />
    </marker>
    <marker
       inkscape:stockid="DotL"
       orient="auto"
       refY="0.0"
       refX="0.0"
       id="DotL"
       style="overflow:visible"
       inkscape:isstock="true">
      <path
         id="path4680"
         d="M -2.5,-1.0 C -2.5,1.7600000 -4.7400000,4.0 -7.5,4.0 C -10.260000,4.0 -12.5,1.7600000 -12.5,-1.0 C -12.5,-3.7600000 -10.260000,-6.0 -7.5,-6.0 C -4.7400000,-6.0 -2.5,-3.7600000 -2.5,-1.0 z "
         style="fill-rule:evenodd;stroke:#000000;stroke-width:1pt;stroke-opacity:1;fill:#000000;fill-opacity:1"
         transform="scale(0.8) translate(7.4, 1)" />
    </marker>
    <marker
       inkscape:stockid="Arrow1Mend"
       orient="auto"
       refY="0.0"
       refX="0.0"
       id="marker4915"
       style="overflow:visible;"
       inkscape:isstock="true">
      <path
         id="path4913"
         d="M 0.0,0.0 L 5.0,-5.0 L -12.5,0.0 L 5.0,5.0 L 0.0,0.0 z "
         style="fill-rule:evenodd;stroke:#000000;stroke-width:1pt;stroke-opacity:1;fill:#000000;fill-opacity:1"
         transform="scale(0.4) rotate(180) translate(10,0)" />
    </marker>
    <marker
       inkscape:stockid="Arrow1Sstart"
       orient="auto"
       refY="0.0"
       refX="0.0"
       id="Arrow1Sstart"
       style="overflow:visible"
       inkscape:isstock="true">
      <path
         id="path4631"
         d="M 0.0,0.0 L 5.0,-5.0 L -12.5,0.0 L 5.0,5.0 L 0.0,0.0 z "
         style="fill-rule:evenodd;stroke:#000000;stroke-width:1pt;stroke-opacity:1;fill:#000000;fill-opacity:1"
         transform="scale(0.2) translate(6,0)" />
    </marker>
    <marker
       inkscape:stockid="Arrow1Send"
       orient="auto"
       refY="0.0"
       refX="0.0"
       id="Arrow1Send"
       style="overflow:visible;"
       inkscape:isstock="true">
      <path
         id="path4634"
         d="M 0.0,0.0 L 5.0,-5.0 L -12.5,0.0 L 5.0,5.0 L 0.0,0.0 z "
         style="fill-rule:evenodd;stroke:#000000;stroke-width:1pt;stroke-opacity:1;fill:#000000;fill-opacity:1"
         transform="scale(0.2) rotate(180) translate(6,0)" />
    </marker>
    <marker
       inkscape:stockid="Arrow1Mend"
       orient="auto"
       refY="0.0"
       refX="0.0"
       id="Arrow1Mend"
       style="overflow:visible;"
       inkscape:isstock="true">
      <path
         id="path4628"
         d="M 0.0,0.0 L 5.0,-5.0 L -12.5,0.0 L 5.0,5.0 L 0.0,0.0 z "
         style="fill-rule:evenodd;stroke:#000000;stroke-width:1pt;stroke-opacity:1;fill:#000000;fill-opacity:1"
         transform="scale(0.4) rotate(180) translate(10,0)" />
    </marker>
    <marker
       inkscape:stockid="Arrow1Lstart"
       orient="auto"
       refY="0.0"
       refX="0.0"
       id="Arrow1Lstart"
       style="overflow:visible"
       inkscape:isstock="true">
      <path
         id="path4619"
         d="M 0.0,0.0 L 5.0,-5.0 L -12.5,0.0 L 5.0,5.0 L 0.0,0.0 z "
         style="fill-rule:evenodd;stroke:#000000;stroke-width:1pt;stroke-opacity:1;fill:#000000;fill-opacity:1"
         transform="scale(0.8) translate(12.5,0)" />
    </marker>
  </defs>
  <sodipodi:namedview
     id="base"
     pagecolor="#ffffff"
     bordercolor="#666666"
     borderopacity="1.0"
     inkscape:pageopacity="0.0"
     inkscape:pageshadow="2"
     inkscape:zoom="0.61338357"
     inkscape:cx="396.58022"
     inkscape:cy="560.53612"
     inkscape:document-units="mm"
     inkscape:current-layer="layer1"
     showgrid="false"
     inkscape:window-width="1863"
     inkscape:window-height="1016"
     inkscape:window-x="57"
     inkscape:window-y="27"
     inkscape:window-maximized="1"
     inkscape:document-rotation="0" />
  <metadata
     id="metadata5">
    <rdf:RDF>
      <cc:Work
         rdf:about="">
        <dc:format>image/svg+xml</dc:format>
        <dc:type
           rdf:resource="http://purl.org/dc/dcmitype/StillImage" />
        <dc:title></dc:title>
      </cc:Work>
    </rdf:RDF>
  </metadata>
  <g
     inkscape:label="Layer 1"
     inkscape:groupmode="layer"
     id="layer1">
    <path
       style="color:#000000;font-style:normal;font-variant:normal;font-weight:normal;font-stretch:normal;font-size:medium;line-height:normal;font-family:sans-serif;font-variant-ligatures:normal;font-variant-position:normal;font-variant-caps:normal;font-variant-numeric:normal;font-variant-alternates:normal;font-feature-settings:normal;text-indent:0;text-align:start;text-decoration:none;text-decoration-line:none;text-decoration-style:solid;text-decoration-color:#000000;letter-spacing:normal;word-spacing:normal;text-transform:none;writing-mode:lr-tb;direction:ltr;text-orientation:mixed;dominant-baseline:auto;baseline-shift:baseline;text-anchor:start;white-space:normal;shape-padding:0;clip-rule:nonzero;display:inline;overflow:visible;visibility:visible;opacity:0.95;isolation:auto;mix-blend-mode:normal;color-interpolation:sRGB;color-interpolation-filters:linearRGB;solid-color:#000000;solid-opacity:1;vector-effect:none;fill:#000000;fill-opacity:1;fill-rule:nonzero;stroke:none;stroke-width:54.747;stroke-linecap:butt;stroke-linejoin:miter;stroke-miterlimit:4;stroke-dasharray:437.976, 109.494, 54.747, 109.494;stroke-dashoffset:465.349;stroke-opacity:1;color-rendering:auto;image-rendering:auto;shape-rendering:auto;text-rendering:auto;enable-background:accumulate"
       d="m 23.036415,265.02442 4.860617,3.24699 0.576226,0.38685 0.59374,0.355 4.970381,2.96616 0.590471,0.3527 0.611291,0.32322 5.063375,2.68819 0.605691,0.32417 0.623223,0.29239 5.149825,2.4056 0.619934,0.29005 0.635177,0.26154 5.220465,2.1315 0.634197,0.25595 0.640549,0.22606 5.287834,1.85508 0.64055,0.22607 0.64921,0.19282 5.3417,1.5839 0.64921,0.19282 0.6546,0.1575 5.38671,1.31133 0.65229,0.16058 0.65767,0.12526 5.42614,1.03977 0.65207,0.12608 0.66403,0.0955 5.44647,0.77434 0.65747,0.0908 0.65823,0.0618 5.46354,0.50663 0.65823,0.0618 0.66129,0.0298 5.469449,0.24075 0.65571,0.0308 0.65878,-0.002 5.46412,-0.023 0.65552,-0.004 0.65626,-0.0326 5.44866,-0.27933 0.65298,-0.0351 0.65047,-0.0663 5.42659,-0.54033 0.65047,-0.0663 0.64564,-0.0943 5.39008,-0.80164 0.64564,-0.0942 0.63985,-0.12773 5.34893,-1.05644 0.63753,-0.12444 0.63501,-0.15565 5.29334,-1.31162 0.63505,-0.15565 0.62919,-0.18933 5.22428,-1.56156 0.6292,-0.18933 0.61883,-0.21627 5.15748,-1.81479 0.61882,-0.21625 0.60743,-0.24886 5.07165,-2.06185 0.61302,-0.24982 0.59931,-0.2791 4.97693,-2.31027 0.59931,-0.27909 0.59121,-0.30935 4.87105,-2.55675 0.59121,-0.30933 0.57521,-0.33539 4.75954,-2.80226 0.57751,-0.33865 0.56057,-0.37024 4.63455,-3.04257 0.56384,-0.36794 0.54685,-0.39952 4.50073,-3.28424 0.54687,-0.39954 0.53084,-0.42556 4.35569,-3.52394 0.53086,-0.42556 0.50829,-0.45617 4.20281,-3.75941 0.51385,-0.45718 0.48671,-0.48125 -41.19462,-36.56223 -3.31866,2.68 -3.39677,2.47763 -3.47955,2.28183 -3.67559,2.16316 -3.62863,1.90182 -3.76711,1.75016 -3.86927,1.57499 -3.91757,1.37899 -3.91083,1.16776 -4.09269,1.01498 -4.00446,0.7925 -4.15331,0.61392 -4.1247,0.41326 -4.19065,0.21454 -4.13869,0.0164 -4.083419,-0.18111 -4.1737,-0.38699 -4.15719,-0.59129 -4.09307,-0.78656 -4.0467,-0.98452 -4.03114,-1.19441 -4.01003,-1.4053 -4.01279,-1.63791 -3.85808,-1.80853 -3.83001,-2.02924 -3.82547,-2.28617 -3.679631,-2.45812 -3.550155,-2.64166 -3.441338,-2.84466 -36.414357,40.88663 0.509555,0.46743 0.533652,0.44024 4.458499,3.68483 0.533652,0.44024 0.557729,0.41305 4.68953,3.48952 0.557729,0.41305 z"
       id="path4939"
       inkscape:connector-curvature="0"
       sodipodi:nodetypes="cccccccccccccccccccccccccccccccccccccccccccccccccccccccccccccccccccccccccccccccccccccccccccccccccccccccccccccccccccccccccccc" />
    <path
       style="color:#000000;font-style:normal;font-variant:normal;font-weight:normal;font-stretch:normal;font-size:medium;line-height:normal;font-family:sans-serif;font-variant-ligatures:normal;font-variant-position:normal;font-variant-caps:normal;font-variant-numeric:normal;font-variant-alternates:normal;font-feature-settings:normal;text-indent:0;text-align:start;text-decoration:none;text-decoration-line:none;text-decoration-style:solid;text-decoration-color:#000000;letter-spacing:normal;word-spacing:normal;text-transform:none;writing-mode:lr-tb;direction:ltr;text-orientation:mixed;dominant-baseline:auto;baseline-shift:baseline;text-anchor:start;white-space:normal;shape-padding:0;clip-rule:nonzero;display:inline;overflow:visible;visibility:visible;opacity:0.95;isolation:auto;mix-blend-mode:normal;color-interpolation:sRGB;color-interpolation-filters:linearRGB;solid-color:#000000;solid-opacity:1;vector-effect:none;fill:#000000;fill-opacity:1;fill-rule:nonzero;stroke:none;stroke-width:54.747;stroke-linecap:butt;stroke-linejoin:miter;stroke-miterlimit:4;stroke-dasharray:437.976, 109.494, 54.747, 109.494;stroke-dashoffset:465.349;stroke-opacity:1;color-rendering:auto;image-rendering:auto;shape-rendering:auto;text-rendering:auto;enable-background:accumulate"
       d="m 83.668781,65.509203 4.0824,-0.850692 4.09684,-0.645751 4.07472,-0.45143 4.176159,-0.259515 4.19615,-0.05561 4.08502,0.140599 4.18622,0.346959 4.10067,0.541352 4.09076,0.739213 3.14409,0.73366 12.42112,-53.319345 -3.74922,-0.873771 -0.65382,-0.154255 -0.65889,-0.118751 -5.43388,-0.989357 -0.65556,-0.116472 -0.66495,-0.08881 -5.45385,-0.7204591 -0.65606,-0.08756 -0.66108,-0.05203 -5.46829,-0.45259 -0.65881,-0.05532 -0.66156,-0.02312 -5.46927,-0.190047 -0.65826,-0.02084 -0.65874,0.008 -5.463649,0.07705 -0.65314,0.007 -0.65592,0.03926 -5.44789,0.336515 -0.65261,0.04156 -0.64978,0.07275 -5.42098,0.593943 -0.6475,0.06945 -0.64696,0.103945 -5.38188,0.8549101 -0.64468,0.10066 -0.63856,0.134131 -5.33594,1.105979 -0.63856,0.134131 -0.63345,0.162017 -1.5854,0.411144 13.67662,53.007522 z"
       id="path815" />
    <circle
       r="48.195599"
       cy="149.44936"
       cx="103.26465"
       id="circle817"
       style="opacity:0.95;fill:none;stroke:#000000;stroke-width:49.6298;stroke-miterlimit:4;stroke-dasharray:none;stroke-opacity:1" />
  </g>
</svg>
